<?xml version="1.0" encoding="iso-8859-1"?>
<!-- Uploaded to: SVG Repo, www.svgrepo.com, Generator: SVG Repo Mixer Tools -->
<svg height="800px" width="800px" version="1.1" id="Layer_1" xmlns="http://www.w3.org/2000/svg" xmlns:xlink="http://www.w3.org/1999/xlink" 
	 viewBox="0 0 512 512" xml:space="preserve">
<path style="fill:#6D6459;" d="M456.683,396.864c-10.657,0-19.296-8.64-19.296-19.296V261.789c0-10.657,8.64-19.296,19.296-19.296
	s19.296,8.64,19.296,19.296v115.779C475.98,388.225,467.34,396.864,456.683,396.864z"/>
<g>
	<path style="fill:#897D70;" d="M55.317,396.864c-10.657,0-19.296-8.64-19.296-19.296V261.789c0-10.657,8.64-19.296,19.296-19.296
		s19.296,8.64,19.296,19.296v115.779C74.613,388.225,65.973,396.864,55.317,396.864z"/>
	<path style="fill:#897D70;" d="M112.318,391.962c-3.472,0-6.988-0.937-10.155-2.902c-9.055-5.618-11.843-17.515-6.224-26.57
		l114.931-185.246c5.619-9.056,17.513-11.844,26.57-6.224c9.055,5.618,11.843,17.515,6.224,26.57L128.733,382.836
		C125.08,388.725,118.772,391.962,112.318,391.962z"/>
</g>
<path style="fill:#6D6459;" d="M399.682,391.962c-6.455,0-12.761-3.238-16.415-9.126L268.336,197.59
	c-5.619-9.056-2.831-20.952,6.224-26.57c9.059-5.617,20.953-2.83,26.57,6.224L416.06,362.49c5.619,9.056,2.831,20.952-6.224,26.57
	C406.67,391.025,403.154,391.962,399.682,391.962z"/>
<path style="fill:#C36F47;" d="M445.106,134.432c0-10.657-8.64-19.296-19.296-19.296H86.191c-10.657,0-19.296,8.64-19.296,19.296
	v48.884c0,10.657,8.64,19.296,19.296,19.296h339.618c10.657,0,19.296-8.64,19.296-19.296V134.432z"/>
<path style="fill:#E27F52;" d="M256,115.136H86.191c-10.657,0-19.296,8.64-19.296,19.296v48.884c0,10.657,8.64,19.296,19.296,19.296
	H256V115.136z"/>
<path style="fill:#C36F47;" d="M512,247.638c0-10.657-8.64-19.296-19.296-19.296H256H19.296C8.64,228.342,0,236.981,0,247.638
	v48.884c0,10.657,8.64,19.296,19.296,19.296H256h236.704c10.657,0,19.296-8.64,19.296-19.296V247.638z"/>
<path style="fill:#E27F52;" d="M256,228.342H19.296C8.64,228.342,0,236.981,0,247.638v48.884c0,10.657,8.64,19.296,19.296,19.296
	H256V228.342z"/>
</svg>