<?xml version="1.0" encoding="utf-8"?>
<!-- Uploaded to: SVG Repo, www.svgrepo.com, Generator: SVG Repo Mixer Tools -->
<svg width="800px" height="800px" viewBox="0 0 1024 1024" class="icon"  version="1.1" xmlns="http://www.w3.org/2000/svg"><path d="M511.3 53.1C258 53.1 52.6 258.5 52.6 511.8S258 970.5 511.3 970.5c253.3 0 458.7-205.4 458.7-458.7S764.7 53.1 511.3 53.1z m0 751.6c-161.8 0-293-131.2-293-293s131.2-293 293-293 293 131.2 293 293-131.2 293-293 293z" fill="#89B7F5" /><path d="M511.3 985.5c-63.9 0-126-12.5-184.4-37.2-56.4-23.9-107.1-58-150.6-101.5S98.6 752.6 74.8 696.2c-24.7-58.4-37.2-120.4-37.2-184.4 0-63.9 12.5-126 37.2-184.4 23.9-56.4 58-107.1 101.5-150.6s94.2-77.7 150.6-101.5c58.4-24.7 120.4-37.2 184.4-37.2 63.9 0 126 12.5 184.4 37.2 56.4 23.9 107.1 58 150.6 101.5S924 271 947.8 327.4c24.7 58.4 37.2 120.4 37.2 184.4 0 63.9-12.5 126-37.2 184.4-23.9 56.4-58 107.1-101.5 150.6s-94.2 77.7-150.6 101.5c-58.4 24.7-120.4 37.2-184.4 37.2z m0-917.4c-59.9 0-118 11.7-172.7 34.9-52.8 22.3-100.3 54.3-141 95.1s-72.7 88.2-95.1 141c-23.1 54.7-34.9 112.8-34.9 172.7s11.7 118 34.9 172.7c22.3 52.8 54.3 100.3 95.1 141s88.2 72.7 141 95.1c54.7 23.1 112.8 34.9 172.7 34.9s118-11.7 172.7-34.9c52.8-22.3 100.3-54.3 141-95.1s72.7-88.2 95.1-141c23.1-54.7 34.9-112.8 34.9-172.7s-11.7-118-34.9-172.7c-22.3-52.8-54.3-100.3-95.1-141s-88.2-72.7-141-95.1c-54.7-23.2-112.8-34.9-172.7-34.9z m0 751.6c-82.3 0-159.6-32-217.8-90.2-58.2-58.2-90.2-135.5-90.2-217.8 0-82.3 32-159.6 90.2-217.8 58.2-58.2 135.5-90.2 217.8-90.2s159.6 32 217.8 90.2c58.2 58.2 90.2 135.5 90.2 217.8 0 82.3-32 159.6-90.2 217.8-58.2 58.2-135.5 90.2-217.8 90.2z m0-585.9c-74.2 0-144 28.9-196.5 81.4-52.5 52.5-81.4 122.3-81.4 196.5s28.9 144 81.4 196.5c52.5 52.5 122.3 81.4 196.5 81.4s144-28.9 196.5-81.4 81.4-122.3 81.4-196.5-28.9-144-81.4-196.5c-52.4-52.4-122.2-81.4-196.5-81.4z" fill="#0F53A8" /><path d="M511.3 233.8c-8.3 0-15-6.7-15-15V53c0-8.3 6.7-15 15-15s15 6.7 15 15v165.8c0 8.3-6.7 15-15 15zM511.3 985.5c-8.3 0-15-6.7-15-15V804.7c0-8.3 6.7-15 15-15s15 6.7 15 15v165.8c0 8.3-6.7 15-15 15zM970 526.8H804.3c-8.3 0-15-6.7-15-15s6.7-15 15-15h165.8c8.3 0 15 6.7 15 15s-6.8 15-15.1 15zM218.4 526.8H52.6c-8.3 0-15-6.7-15-15s6.7-15 15-15h165.8c8.3 0 15 6.7 15 15s-6.7 15-15 15zM604.6 925.2c-6.7 0-12.8-4.5-14.5-11.2-2.1-8 2.7-16.2 10.7-18.3 70.4-18.3 134.3-55.9 184.8-108.7 5.7-6 15.2-6.2 21.2-0.5s6.2 15.2 0.5 21.2c-54.4 56.9-123.2 97.4-199 117-1.2 0.4-2.4 0.5-3.7 0.5zM98 473.9c-0.7 0-1.4 0-2.1-0.1-8.2-1.1-13.9-8.7-12.8-16.9 20.9-150.7 122.1-279 264-334.9 7.7-3 16.4 0.8 19.5 8.5 3 7.7-0.8 16.4-8.5 19.5-131.8 51.9-225.8 171.1-245.2 311.1-1.1 7.4-7.6 12.8-14.9 12.8z" fill="#0F53A8" /></svg>