<?xml version="1.0" encoding="utf-8"?>
<!-- Uploaded to: SVG Repo, www.svgrepo.com, Generator: SVG Repo Mixer Tools -->
<svg width="800px" height="800px" viewBox="0 0 1024 1024" class="icon"  version="1.1" xmlns="http://www.w3.org/2000/svg"><path d="M907.707733 804.784356c-82.3296 0-82.3296-55.489422-164.670577-55.489423s-82.340978 55.489422-164.693334 55.489423c-82.318222 0-82.318222-55.489422-164.647822-55.489423-82.318222 0-82.318222 55.489422-164.647822 55.489423-82.295467 0-82.295467-55.489422-164.590934-55.489423V632.035556c82.295467 0 82.295467 55.489422 164.590934 55.489422 82.3296 0 82.3296-55.489422 164.647822-55.489422 82.3296 0 82.3296 55.489422 164.647822 55.489422 82.352356 0 82.352356-55.489422 164.693334-55.489422s82.3296 55.489422 164.670577 55.489422" fill="#47A7DD" /><path d="M907.707733 922.043733c-82.3296 0-82.3296-55.478044-164.670577-55.478044s-82.340978 55.478044-164.693334 55.478044c-82.318222 0-82.318222-55.478044-164.647822-55.478044-82.318222 0-82.318222 55.478044-164.647822 55.478044-82.295467 0-82.295467-55.478044-164.590934-55.478044V749.294933c82.295467 0 82.295467 55.478044 164.590934 55.478045 82.3296 0 82.3296-55.478044 164.647822-55.478045 82.3296 0 82.3296 55.478044 164.647822 55.478045 82.352356 0 82.352356-55.478044 164.693334-55.478045s82.3296 55.478044 164.670577 55.478045" fill="#47A7DD" /><path d="M256.477867 176.992711a16.167822 16.167822 0 0 0 20.866844-9.204622 108.225422 108.225422 0 0 1 24.7808-37.842489 109.124267 109.124267 0 0 1 77.380267-31.857778c60.347733 0 109.442844 48.799289 109.442844 108.782934 0 8.863289 7.224889 16.054044 16.145067 16.054044s16.145067-7.179378 16.145067-16.054044c0-77.687467-63.579022-140.879644-141.732978-140.879645a141.312 141.312 0 0 0-100.215467 41.255822 140.060444 140.060444 0 0 0-32.085333 49.004089 16.042667 16.042667 0 0 0 9.272889 20.741689zM907.707733 906.001067c-36.204089 0-53.373156-11.582578-73.261511-24.974223-21.219556-14.301867-45.272178-30.5152-91.397689-30.5152-46.136889 0-70.178133 16.213333-91.397689 30.5152-9.864533 6.644622-19.182933 12.936533-30.469688 17.487645a16.008533 16.008533 0 0 0-8.874667 20.912355 16.156444 16.156444 0 0 0 21.037511 8.817778c14.449778-5.8368 25.622756-13.368889 36.420267-20.639289 19.888356-13.4144 37.0688-24.974222 73.284266-24.974222s53.384533 11.582578 73.272889 24.974222c21.208178 14.290489 45.272178 30.503822 91.386311 30.503823 8.931556 0 16.156444-7.190756 16.156445-16.054045s-7.236267-16.054044-16.156445-16.054044zM578.3552 906.001067c-36.204089 0-53.373156-11.582578-73.261511-24.974223-21.219556-14.301867-45.272178-30.5152-91.386311-30.5152s-70.166756 16.213333-91.386311 30.5152c-19.888356 13.403022-37.057422 24.974222-73.261511 24.974223-36.192711 0-53.3504-11.582578-73.238756-24.974223-21.208178-14.290489-45.249422-30.5152-91.352178-30.5152-8.920178 0-16.145067 7.202133-16.145066 16.054045 0 8.863289 7.224889 16.054044 16.145066 16.054044 36.192711 0 53.3504 11.582578 73.238756 24.974223 21.208178 14.290489 45.2608 30.5152 91.363555 30.5152 46.114133 0 70.166756-16.224711 91.386311-30.5152 19.888356-13.403022 37.057422-24.974222 73.261512-24.974223s53.373156 11.582578 73.261511 24.974223c21.219556 14.290489 45.272178 30.5152 91.386311 30.5152 8.920178 0 16.145067-7.202133 16.145066-16.054045 0-8.863289-7.236267-16.054044-16.156444-16.054044zM834.446222 646.485333c-21.219556-14.290489-45.272178-30.5152-91.397689-30.5152-10.911289 0-20.844089 0.876089-30.355911 2.6624a16.065422 16.065422 0 0 0-12.845511 18.761956 16.133689 16.133689 0 0 0 18.864356 12.777244 129.627022 129.627022 0 0 1 24.337066-2.104889c36.204089 0 53.384533 11.5712 73.272889 24.974223 21.208178 14.290489 45.272178 30.503822 91.386311 30.503822 8.931556 0 16.156444-7.190756 16.156445-16.054045 0-8.851911-7.224889-16.042667-16.156445-16.042666-36.192711 0.022756-53.373156-11.548444-73.261511-24.962845zM84.457244 648.0896c36.192711 0 53.3504 11.582578 73.238756 24.974222 10.808889 7.281778 21.981867 14.813867 36.408889 20.639289a16.156444 16.156444 0 0 0 21.037511-8.817778 16.042667 16.042667 0 0 0-8.863289-20.923733c-11.286756-4.551111-20.605156-10.843022-30.458311-17.487644-21.208178-14.290489-45.249422-30.5152-91.363556-30.5152-8.920178 0-16.145067 7.190756-16.145066 16.054044a16.122311 16.122311 0 0 0 16.145066 16.0768z" fill="" /><path d="M793.463467 65.991111a141.289244 141.289244 0 0 0-100.204089 41.255822 139.514311 139.514311 0 0 0-41.517511 99.623823v125.792711H270.074311V217.565867c0-8.863289-7.224889-16.054044-16.145067-16.054045s-16.145067 7.190756-16.145066 16.054045v570.743466c-28.694756-2.161778-44.282311-12.617956-61.963378-24.553244-21.208178-14.290489-45.249422-30.503822-91.363556-30.503822-8.920178 0-16.145067 7.190756-16.145066 16.054044 0 8.851911 7.224889 16.042667 16.145066 16.042667 36.192711 0 53.3504 11.582578 73.238756 24.974222 21.208178 14.301867 45.249422 30.5152 91.352178 30.5152 46.125511 0 70.166756-16.213333 91.386311-30.5152 19.888356-13.403022 37.057422-24.974222 73.261511-24.974222 36.215467 0 53.384533 11.582578 73.272889 24.974222 21.219556 14.301867 45.272178 30.5152 91.386311 30.5152 46.136889 0 70.178133-16.213333 91.397689-30.5152 19.888356-13.403022 37.0688-24.974222 73.284267-24.974222 36.204089 0 53.373156 11.582578 73.272888 24.974222 21.208178 14.301867 45.272178 30.5152 91.386312 30.5152 8.920178 0 16.156444-7.190756 16.156444-16.054044 0-8.851911-7.236267-16.054044-16.156444-16.054045-36.204089 0-53.373156-11.582578-73.272889-24.974222-21.208178-14.290489-45.272178-30.503822-91.386311-30.503822-25.224533 0-43.849956 4.858311-59.016534 11.593955V206.870756a107.781689 107.781689 0 0 1 32.0512-76.925156 109.090133 109.090133 0 0 1 77.380267-31.857778c60.359111 0 109.442844 48.799289 109.442844 108.782934 0 8.863289 7.224889 16.054044 16.145067 16.054044s16.145067-7.179378 16.145067-16.054044C935.196444 129.183289 871.617422 65.991111 793.463467 65.991111zM651.741867 364.760178v132.767289h-30.321778c-8.9088 0-16.133689 7.190756-16.133689 16.054044s7.224889 16.054044 16.133689 16.054045h30.321778v132.767288H270.074311V529.635556h297.540267c8.920178 0 16.145067-7.190756 16.145066-16.054045s-7.224889-16.054044-16.145066-16.054044H270.074311V364.760178h381.667556z m-0.1024 398.995911c-19.888356 13.403022-37.0688 24.974222-73.284267 24.974222-36.204089 0-53.373156-11.582578-73.261511-24.974222-21.219556-14.290489-45.272178-30.5152-91.386311-30.5152s-70.166756 16.224711-91.386311 30.5152c-15.587556 10.513067-29.536711 19.854222-52.246756 23.426844v-92.672h381.656178v69.176889a0.625778 0.625778 0 0 1-0.091022 0.068267z" fill="" /></svg>